<?xml version="1.0" standalone="no"?>
<!DOCTYPE svg PUBLIC "-//W3C//DTD SVG 20010904//EN"
 "http://www.w3.org/TR/2001/REC-SVG-20010904/DTD/svg10.dtd">
<svg version="1.0" xmlns="http://www.w3.org/2000/svg"
 width="1024.000000pt" height="1024.000000pt" viewBox="0 0 1024.000000 1024.000000"
 preserveAspectRatio="xMidYMid meet">

<g transform="translate(0.000000,1024.000000) scale(0.100000,-0.100000)"
fill="#000000" stroke="none">
<path d="M0 5120 l0 -5120 5120 0 5120 0 0 5120 0 5120 -5120 0 -5120 0 0
-5120z m5030 4030 l0 -580 -60 0 -60 0 0 -50 0 -50 59 0 59 0 7 -62 c4 -35 5
-83 3 -108 l-3 -45 -62 -3 -63 -3 0 -44 0 -43 63 -7 63 -7 2 -86 c1 -48 -1
-92 -6 -99 -4 -6 -32 -13 -62 -15 l-55 -3 -3 -47 -3 -48 59 0 60 0 3 -37 c2
-21 3 -91 1 -155 l-3 -118 -60 0 -59 0 0 -44 0 -43 56 -6 c31 -3 59 -9 63 -12
7 -8 11 -265 4 -317 l-5 -38 -59 0 -59 0 0 -45 0 -45 59 0 59 0 7 -66 c7 -65
2 -155 -10 -174 -3 -6 -31 -10 -61 -10 l-54 0 0 -45 0 -45 59 0 59 0 7 -83 c6
-69 5 -101 -5 -164 0 -2 -27 -3 -60 -3 l-60 0 0 -44 0 -44 65 -7 65 -7 0 -89
0 -89 -66 0 -65 0 3 -47 3 -48 58 -3 58 -3 -3 -151 -3 -152 -48 -12 c-66 -17
-146 -58 -191 -100 -70 -64 -66 -98 -68 544 -2 317 -2 906 0 1307 2 774 2 772
58 1220 40 326 129 911 145 963 10 30 77 92 101 92 4 0 8 -261 8 -580z m179
533 c43 -43 36 -9 147 -743 108 -709 96 -478 101 -2060 l4 -1395 -32 48 c-17
26 -47 61 -68 77 -48 40 -145 89 -193 96 l-38 7 0 88 0 88 58 3 57 3 3 48 3
47 -61 0 c-61 0 -61 0 -58 28 3 26 6 27 61 30 l57 3 0 44 0 45 -60 0 -60 0 0
145 0 144 63 3 62 3 0 45 0 45 -62 3 -63 3 0 123 0 124 55 4 c30 3 57 7 59 9
2 2 6 23 10 46 l6 42 -62 3 -63 3 -3 163 -2 162 59 0 c65 0 71 6 71 66 l0 34
-59 0 c-44 0 -60 4 -65 16 -3 9 -6 67 -6 130 l0 114 60 0 60 0 0 50 0 50 -60
0 -60 0 0 30 0 30 60 0 60 0 0 45 0 44 -57 3 -58 3 -3 79 c-3 91 0 96 71 96
l47 0 0 45 0 45 -61 0 -60 0 3 33 c3 32 4 32 59 35 54 3 57 4 63 34 11 58 11
58 -59 58 l-65 0 0 110 0 110 60 0 60 0 0 34 c0 19 3 41 6 50 5 14 -4 16 -60
16 l-66 0 0 423 c0 233 3 492 7 575 7 172 10 177 72 115z m-457 -205 c27 -21
30 -53 9 -79 l-19 -24 -1935 -3 c-1830 -2 -1936 -3 -1941 -20 -3 -9 -4 -495
-3 -1078 2 -1032 1 -1062 -17 -1083 -24 -27 -44 -27 -73 1 l-23 21 0 1116 c0
614 3 1126 6 1139 l6 22 1987 0 c1575 0 1990 -3 2003 -12z m4654 -1 c2 -7 5
-494 7 -1082 l2 -1070 24 -38 24 -38 -24 -32 -24 -32 -2 -2550 c-1 -1402 -2
-2817 -2 -3142 l-1 -593 -1990 0 -1990 0 -17 26 c-15 24 -15 29 -2 53 l15 26
1936 3 1935 2 7 40 c3 22 6 1903 5 4180 l-1 4140 -1934 0 c-1921 0 -1934 0
-1954 20 -11 11 -20 29 -20 40 0 11 9 29 20 40 20 20 33 20 2000 20 1595 0
1982 -2 1986 -13z m-304 -300 c4 -6 8 -1678 8 -3714 l0 -3702 -27 -20 c-23
-19 -29 -20 -47 -7 l-21 13 -3 3667 -2 3666 -1768 0 c-1729 0 -1769 0 -1786
19 -23 25 -17 72 10 86 32 16 3625 9 3636 -8z m-4384 1 c17 -17 15 -63 -5 -79
-13 -12 -305 -15 -1782 -19 l-1766 -5 -2 -980 c-2 -539 -3 -997 -3 -1017 0
-32 -3 -38 -20 -38 -12 0 -34 7 -50 15 l-30 16 0 1047 c0 802 3 1051 12 1060
17 17 3629 17 3646 0z m1017 -313 c0 -22 -31 -33 -47 -17 -17 17 -1 44 24 40
15 -2 23 -10 23 -23z m175 0 c10 -12 10 -18 0 -30 -26 -31 -78 -8 -59 27 12
22 42 24 59 3z m164 -11 c21 -21 20 -37 -4 -59 -16 -15 -22 -15 -35 -5 -18 15
-20 51 -3 68 16 16 23 15 42 -4z m1827 -131 c68 -80 154 -181 190 -224 l67
-77 29 31 c17 18 95 111 175 207 80 96 154 183 164 192 16 14 35 16 134 10
l115 -7 0 -107 c0 -60 -1 -299 -3 -533 l-2 -425 -125 0 -125 0 0 315 c0 173
-3 315 -7 315 -13 0 -184 -206 -306 -367 -21 -29 -44 -50 -49 -47 -5 3 -66 74
-135 157 -175 211 -216 257 -225 257 -4 0 -8 -142 -8 -315 l0 -315 -124 0
-124 0 -7 456 c-8 499 -6 601 16 615 8 5 62 9 120 9 l106 0 124 -147z m-5466
-288 c0 -323 -3 -433 -14 -475 -43 -173 -150 -287 -299 -319 -46 -9 -162 -16
-162 -8 0 1 14 49 30 107 17 58 30 106 30 106 0 1 12 4 28 7 41 8 77 41 104
95 23 47 23 49 26 480 l3 433 127 -3 127 -3 0 -420z m3815 404 c9 -16 8 -26
-5 -45 -17 -26 -35 -30 -53 -12 -13 13 -16 60 -5 71 14 15 53 6 63 -14z
m-2788 -271 l3 -242 25 -6 c25 -6 39 -35 23 -51 -5 -5 -31 -1 -61 8 l-52 17 0
233 0 233 -50 0 c-47 0 -50 2 -50 25 0 25 1 25 80 25 l80 0 2 -242z m408 225
c-1 -10 -22 -56 -48 -103 -35 -62 -54 -86 -70 -88 -33 -5 -28 32 13 98 l34 55
-80 3 c-76 3 -79 4 -79 27 l0 25 115 0 c103 0 115 -2 115 -17z m271 -39 c15
-19 2 -47 -26 -52 -25 -5 -38 13 -31 42 7 30 36 35 57 10z m2264 -34 c15 -16
16 -22 5 -35 -17 -21 -54 -15 -58 8 -4 18 14 47 28 47 4 0 15 -9 25 -20z m235
-5 c7 -8 10 -25 6 -39 -11 -45 -57 -41 -71 5 -13 40 38 66 65 34z m170 0 c7
-8 10 -25 6 -39 -11 -45 -57 -41 -71 5 -13 40 38 66 65 34z m174 -1 c20 -19
20 -24 0 -52 -20 -29 -40 -28 -59 2 -31 47 20 89 59 50z m236 1 c15 -19 6 -61
-16 -69 -20 -8 -54 20 -54 44 0 36 46 53 70 25z m168 3 c19 -19 14 -56 -8 -68
-23 -12 -35 -7 -49 18 -21 40 26 81 57 50z m-2744 -105 c-3 -16 -15 -62 -26
-104 l-19 -76 -132 -47 c-349 -125 -735 -325 -1024 -528 -62 -44 -113 -85
-113 -93 0 -7 48 -62 108 -122 59 -60 194 -198 301 -306 107 -109 197 -196
202 -195 27 10 224 256 326 408 58 86 200 324 233 390 12 25 32 58 43 74 19
27 21 28 34 10 7 -10 13 -26 13 -36 0 -24 -153 -292 -255 -448 -83 -125 -206
-287 -297 -389 -26 -30 -48 -60 -48 -67 0 -6 63 -70 139 -142 l140 -131 33 33
c68 68 167 67 225 0 132 -150 -88 -328 -225 -181 -13 13 -26 37 -31 53 l-7 29
-407 3 -407 2 0 -215 0 -215 -30 0 -30 0 0 215 0 215 -523 0 -523 0 -45 -75
c-24 -41 -48 -75 -53 -75 -19 0 -176 64 -176 72 0 17 169 266 261 384 370 477
767 829 1284 1140 250 150 610 315 885 405 143 47 152 48 144 12z m2176 -98
c17 -20 5 -33 -25 -27 -28 5 -39 17 -30 32 9 15 41 12 55 -5z m165 -25 c35
-38 -17 -94 -53 -58 -24 24 -8 78 23 78 7 0 20 -9 30 -20z m233 8 c30 -30 -2
-93 -36 -72 -31 20 -37 41 -18 63 22 24 37 26 54 9z m170 0 c32 -32 -9 -96
-44 -67 -14 12 -19 60 -7 72 10 11 38 8 51 -5z m-1555 -53 c80 -21 132 -49
184 -101 l44 -45 -35 -39 c-44 -49 -53 -82 -32 -115 24 -36 50 -31 105 20 65
61 144 95 234 102 126 10 228 -24 318 -104 65 -59 96 -115 112 -199 l13 -69
44 3 c78 5 135 -15 194 -69 120 -109 138 -286 43 -411 -62 -81 -148 -107 -236
-72 -36 14 -42 21 -56 72 -31 108 -102 203 -190 253 -58 34 -105 37 -129 10
-29 -32 -17 -63 37 -92 110 -59 166 -149 176 -282 6 -78 7 -82 34 -91 20 -7
34 -7 48 2 15 9 30 10 64 1 67 -17 171 -8 229 21 90 43 177 158 193 253 3 20
11 37 18 37 24 0 122 -88 153 -137 41 -63 68 -128 77 -180 6 -39 5 -43 -25
-58 -76 -39 -58 -106 34 -125 113 -23 163 -94 153 -216 -19 -210 -158 -387
-348 -445 l-70 -21 -71 26 c-117 44 -187 44 -325 1 -20 -6 -25 0 -47 49 -29
65 -102 147 -164 183 -23 14 -75 36 -115 48 l-72 23 -12 61 c-24 116 -93 210
-192 258 -102 51 -261 33 -330 -36 -30 -30 -29 -88 3 -102 19 -9 33 -6 77 17
75 39 147 39 211 1 80 -47 118 -124 118 -242 0 -89 16 -108 78 -94 40 9 107
-3 153 -26 98 -51 159 -156 159 -272 0 -61 3 -74 19 -83 38 -20 60 -11 93 35
76 108 241 121 373 30 28 -19 56 -35 63 -35 7 0 25 12 40 27 15 15 59 39 98
53 122 46 211 119 279 228 21 34 42 62 46 62 13 0 67 -78 90 -129 71 -161 28
-388 -102 -534 l-37 -42 -43 24 c-60 32 -71 44 -89 93 -14 37 -19 43 -45 43
l-30 0 2 -60 c7 -257 4 -397 -11 -480 -14 -84 -14 -91 1 -103 10 -7 22 -11 27
-9 5 2 28 34 51 72 57 94 109 130 183 130 69 0 111 -27 138 -88 33 -74 24
-165 -55 -557 -70 -342 -73 -362 -81 -555 -5 -110 -13 -216 -18 -235 -42 -157
-135 -290 -239 -344 -42 -21 -129 -21 -172 2 -60 30 -76 62 -76 155 0 81 -1
84 -35 79 -5 -1 -17 -17 -27 -34 -16 -29 -18 -77 -24 -423 -7 -407 -13 -471
-57 -598 -49 -137 -161 -293 -296 -409 -114 -97 -304 -222 -507 -331 -319
-171 -466 -227 -602 -227 l-57 0 2 213 3 212 68 11 c82 14 105 32 91 71 -10
29 -30 37 -116 48 l-48 6 0 58 c0 69 10 80 90 106 56 18 100 49 100 70 0 28
-41 49 -90 47 -27 -1 -60 2 -74 8 -23 8 -26 15 -26 55 l0 46 73 34 c121 58
182 63 410 34 67 -9 82 -8 103 6 49 32 18 95 -46 95 -34 0 -106 17 -345 81
-38 10 -98 19 -132 19 l-63 0 0 54 0 53 45 7 c65 8 85 22 85 55 0 35 -11 44
-75 68 -42 16 -51 23 -53 47 -3 22 7 38 50 81 43 43 65 56 113 70 133 36 189
74 233 159 23 44 27 63 27 136 0 76 -4 91 -32 146 -31 60 -101 133 -176 184
l-37 25 0 158 0 157 38 0 c57 0 83 10 92 36 15 37 2 53 -71 89 -154 78 -213
213 -129 297 54 53 112 35 225 -70 154 -143 259 -187 445 -187 187 0 278 41
449 200 56 53 119 104 138 112 20 8 66 17 103 20 l68 6 6 45 c3 25 3 49 -1 53
-5 4 -39 15 -77 24 -99 22 -141 44 -226 115 -186 156 -278 195 -460 195 -98
-1 -125 -4 -186 -26 -109 -40 -202 -110 -329 -249 l-50 -55 -3 28 c-8 68 109
223 229 304 119 81 336 168 497 199 106 21 317 23 422 5 41 -8 127 -29 190
-47 63 -19 119 -34 124 -34 21 0 -61 72 -126 111 -190 115 -426 169 -743 169
-212 0 -367 -17 -620 -69 l-185 -38 0 244 c0 280 -7 259 100 311 157 75 350
-6 396 -167 20 -67 30 -81 58 -81 68 0 81 82 28 186 -48 93 -125 158 -232 194
-85 29 -197 24 -288 -13 l-62 -25 2 246 3 245 44 24 c58 30 71 42 71 63 0 27
-48 60 -86 60 l-34 0 0 290 c0 317 -4 300 61 279 70 -24 99 -57 157 -176 62
-129 73 -195 52 -298 -7 -33 -15 -81 -17 -107 -4 -41 -2 -48 20 -63 48 -31 79
7 112 135 9 36 21 71 27 78 6 6 29 12 52 12 59 0 82 9 93 33 22 49 -17 80
-116 93 l-48 6 -52 130 c-57 141 -57 149 -19 240 19 44 19 50 4 72 -35 54 -78
40 -118 -37 -15 -30 -23 -37 -36 -31 -9 4 -52 19 -94 33 l-78 26 -2 258 c-1
141 -2 271 -3 287 -3 47 18 57 125 59 36 0 92 -6 123 -14z m-3088 -108 c18
-18 38 -52 45 -75 26 -100 -41 -229 -109 -207 -29 9 -26 32 7 49 34 18 52 54
52 106 0 50 -16 84 -46 101 -26 14 -30 29 -12 47 18 18 27 15 63 -21z m323 11
c17 -17 15 -43 -4 -59 -31 -26 -70 25 -44 56 15 18 32 19 48 3z m4152 -72 c6
-8 10 -25 8 -38 -2 -18 -9 -23 -33 -23 -24 0 -31 5 -33 23 -2 13 -1 30 2 38 7
18 40 18 56 0z m164 8 c20 -8 21 -57 1 -74 -18 -15 -55 -4 -56 18 -4 51 16 71
55 56z m-5486 -249 c3 -166 -6 -222 -45 -273 -39 -52 -80 -72 -143 -72 -107 1
-188 65 -211 166 -17 77 -12 84 67 84 98 0 104 8 104 135 0 56 3 105 7 109 4
3 54 5 112 4 l106 -3 3 -150z m1163 145 c23 -13 25 -43 3 -61 -31 -26 -70 25
-44 56 15 18 16 18 41 5z m4334 -150 c0 -18 -6 -26 -23 -28 -24 -4 -38 18 -28
44 3 9 15 14 28 12 17 -2 23 -10 23 -28z m453 -392 c24 -24 8 -78 -24 -78 -17
0 -44 28 -44 45 0 17 27 45 44 45 6 0 17 -5 24 -12z m163 2 c35 -19 18 -80
-23 -80 -16 0 -38 27 -38 49 0 10 27 41 36 41 3 0 14 -5 25 -10z m173 -6 c19
-18 20 -28 6 -55 -12 -21 -40 -25 -58 -7 -18 18 -15 55 6 67 23 14 28 14 46
-5z m164 4 c26 -26 7 -78 -29 -78 -31 0 -40 62 -11 79 22 13 26 13 40 -1z
m166 -1 c38 -27 -2 -95 -41 -71 -25 16 -29 55 -7 71 10 7 21 13 24 13 3 0 14
-6 24 -13z m311 -3 c20 -20 16 -53 -7 -68 -40 -24 -80 44 -42 71 23 17 29 16
49 -3z m-1131 -19 c6 -17 -2 -45 -14 -45 -4 0 -13 7 -20 15 -10 12 -10 18 0
30 7 8 16 15 20 15 4 0 10 -7 14 -15z m170 -217 c8 -14 6 -22 -11 -40 -18 -18
-24 -19 -37 -8 -16 13 -21 51 -9 64 12 12 45 2 57 -16z m162 7 c4 -8 3 -27 0
-41 -5 -20 -12 -25 -34 -22 -28 3 -40 32 -28 64 7 19 55 18 62 -1z m171 -1 c3
-8 1 -26 -5 -40 -22 -46 -81 -19 -68 31 5 20 13 25 37 25 18 0 32 -6 36 -16z
m158 -18 c0 -36 -26 -56 -49 -37 -16 14 -22 52 -9 65 4 4 19 6 33 4 20 -2 25
-8 25 -32z m160 0 c0 -36 -26 -56 -49 -37 -16 14 -22 52 -9 65 4 4 19 6 33 4
20 -2 25 -8 25 -32z m159 12 c8 -14 6 -22 -11 -40 -18 -18 -24 -19 -37 -8 -16
13 -21 51 -9 64 12 12 45 2 57 -16z m162 -3 c12 -48 -44 -77 -66 -35 -15 28 4
60 35 60 18 0 26 -7 31 -25z m-7076 -14 c14 -28 13 -39 -9 -51 -38 -20 -63 38
-27 62 17 12 25 9 36 -11z m-1167 -265 c122 -52 305 -129 407 -171 102 -42
214 -88 249 -103 39 -16 73 -38 89 -59 36 -44 192 -334 192 -355 0 -26 -46
-23 -69 5 -11 12 -54 65 -98 117 l-78 95 -477 240 c-262 132 -483 246 -492
254 -32 27 -13 71 32 71 13 0 123 -42 245 -94z m1425 65 c8 -4 12 -19 10 -32
-4 -30 -51 -35 -56 -6 -8 39 15 58 46 38z m2427 -36 c0 -27 -3 -30 -30 -30
-21 0 -31 5 -33 18 -5 25 17 49 42 45 16 -2 21 -10 21 -33z m3569 29 c20 -8
21 -57 1 -74 -23 -19 -55 -3 -55 29 0 40 21 58 54 45z m174 -6 c28 -28 0 -85
-36 -74 -26 9 -37 39 -22 66 12 22 40 26 58 8z m156 6 c21 -8 21 -58 0 -75
-33 -27 -72 33 -44 67 14 16 21 17 44 8z m171 -33 c0 -41 -25 -62 -49 -42 -33
27 -12 85 29 79 16 -2 20 -11 20 -37z m155 25 c28 -34 -11 -94 -44 -67 -19 16
-21 67 -3 74 22 9 34 7 47 -7z m158 2 c7 -7 12 -21 12 -33 0 -46 -53 -62 -71
-21 -21 45 26 87 59 54z m-7404 -89 c16 -23 12 -44 -10 -53 -22 -8 -44 4 -44
24 0 50 28 65 54 29z m6766 -133 c28 -35 -11 -93 -47 -70 -24 15 -28 48 -8 68
20 20 39 20 55 2z m165 -2 c28 -28 1 -77 -40 -72 -38 5 -28 88 11 88 7 0 20
-7 29 -16z m159 3 c38 -27 -2 -95 -41 -71 -25 16 -29 55 -7 71 10 7 21 13 24
13 3 0 14 -6 24 -13z m310 0 c38 -27 -2 -95 -41 -71 -24 15 -28 48 -8 68 20
19 26 20 49 3z m-794 -12 c12 -14 5 -55 -10 -55 -10 0 -30 56 -23 64 10 10 20
7 33 -9z m-7186 -194 c17 -19 18 -166 17 -2803 0 -1531 2 -2816 5 -2855 l6
-73 1047 0 1048 0 23 25 c30 32 50 32 80 0 l23 -25 827 0 c629 0 829 -3 838
-12 17 -17 15 -58 -5 -80 -15 -17 -91 -18 -2003 -18 -1803 0 -1988 1 -1994 16
-11 28 -7 5790 4 5818 12 32 58 36 84 7z m7350 -43 c14 -23 -3 -52 -32 -56
-30 -5 -45 29 -26 57 18 25 42 24 58 -1z m161 -18 c0 -31 -3 -35 -28 -38 -31
-4 -43 14 -33 54 5 20 12 25 34 22 24 -3 27 -7 27 -38z m149 34 c24 -9 21 -61
-5 -74 -38 -21 -69 36 -37 68 14 14 20 14 42 6z m161 -14 c17 -18 17 -21 1
-45 -27 -41 -65 -13 -52 38 8 32 26 34 51 7z m169 -2 c15 -25 -3 -52 -38 -56
-24 -3 -26 0 -26 31 0 18 3 37 7 41 12 12 45 2 57 -16z m-4949 -98 c15 -17 16
-24 7 -45 -14 -29 -66 -36 -76 -9 -23 59 28 99 69 54z m-1815 -65 c102 -42
295 -120 430 -175 135 -54 301 -122 370 -150 199 -82 1212 -488 1470 -590 213
-84 340 -136 347 -143 1 -2 -7 -31 -17 -66 -23 -74 -26 -174 -6 -248 8 -29 12
-53 10 -53 -2 0 -223 94 -491 209 -268 114 -573 244 -678 289 -383 162 -1235
529 -1612 693 -34 15 -52 34 -97 102 -87 136 -87 119 -3 165 39 22 77 41 82
41 6 1 93 -33 195 -74z m6290 -9 c0 -32 -26 -53 -48 -39 -24 14 -27 54 -7 70
24 17 55 -1 55 -31z m470 23 c9 -16 8 -26 -5 -45 -19 -30 -30 -30 -49 -2 -20
28 -20 33 0 52 21 22 41 20 54 -5z m-632 -17 c4 -26 -13 -52 -34 -52 -18 0
-36 44 -27 65 9 26 57 15 61 -13z m-4567 -52 c37 -20 18 -80 -26 -80 -42 0
-59 44 -29 74 18 19 28 20 55 6z m814 -34 c30 -45 -20 -91 -64 -59 -27 19 -27
48 1 67 31 22 45 20 63 -8z m-3303 -13 c17 -15 18 -87 18 -1881 0 -1722 -1
-1867 -17 -1884 -18 -21 -53 -24 -71 -6 -9 9 -12 443 -12 1890 0 1777 1 1878
18 1887 25 15 43 13 64 -6z m2026 -19 c2 -16 -41 -86 -93 -152 -1 -1 -14 2
-29 8 -32 12 -30 15 39 108 47 65 77 78 83 36z m5180 -76 c28 -28 2 -88 -33
-74 -22 8 -29 34 -17 62 13 26 31 31 50 12z m160 0 c30 -30 -2 -93 -36 -71
-21 13 -27 50 -12 69 15 17 32 18 48 2z m157 -8 c17 -18 17 -21 1 -45 -18 -28
-27 -30 -44 -13 -22 22 -8 78 18 78 4 0 15 -9 25 -20z m159 1 c21 -24 14 -57
-15 -66 -38 -12 -60 25 -39 66 14 24 32 24 54 0z m-4789 -11 c17 -18 17 -21 1
-45 -33 -51 -103 -15 -78 39 14 32 51 35 77 6z m4159 -28 c-6 -9 -17 -17 -25
-17 -18 0 -24 32 -8 51 11 13 14 13 28 -1 12 -12 13 -19 5 -33z m-6323 -118
c108 -44 102 -33 65 -121 -98 -233 -170 -508 -207 -793 -15 -107 -16 -547 -2
-650 l8 -65 300 -3 c268 -2 301 -4 313 -19 31 -42 27 -43 -293 -43 l-305 0 0
-30 c0 -113 118 -531 207 -733 21 -47 31 -83 26 -91 -16 -28 -108 -146 -114
-146 -11 0 -117 234 -164 365 -239 655 -246 1455 -19 2083 43 118 109 272 117
272 2 0 32 -12 68 -26z m2713 -5 c9 -48 7 -497 -2 -503 -5 -3 -92 28 -193 68
-101 40 -239 94 -306 120 -68 26 -125 51 -128 56 -2 4 28 30 68 58 115 79 312
172 452 213 89 26 101 25 109 -12z m-1119 -9 c3 -10 1 -28 -5 -40 -10 -19 -13
-19 -40 -5 -34 18 -37 27 -14 49 21 22 51 20 59 -4z m5046 -40 c36 -20 17 -90
-25 -90 -12 0 -36 33 -36 50 0 17 24 50 36 50 3 0 14 -5 25 -10z m-151 -20
c20 -37 -17 -77 -52 -58 -18 9 -25 58 -11 71 14 14 53 6 63 -13z m475 0 c14
-45 -18 -80 -56 -60 -21 12 -25 50 -7 68 19 19 56 14 63 -8z m-5041 -66 c19
-18 19 -20 6 -45 -13 -24 -31 -24 -60 -1 l-23 19 21 21 c26 26 35 27 56 6z
m-1376 -88 c3 -4 -151 -416 -253 -678 -7 -17 21 -18 508 -18 326 0 518 -4 522
-10 3 -5 1 -19 -5 -30 -10 -19 -20 -20 -286 -20 -231 0 -278 -2 -290 -15 -20
-19 -88 -19 -108 0 -12 13 -43 15 -185 13 l-170 -3 200 -404 c109 -222 199
-409 199 -416 0 -6 -9 -20 -19 -29 -19 -17 -25 -6 -235 418 l-216 436 -80 0
c-43 0 -81 4 -84 8 -3 5 -2 18 1 30 5 19 12 22 59 22 30 0 54 4 54 9 0 6 -33
58 -72 117 l-72 106 23 19 c13 11 27 16 31 12 4 -4 42 -62 85 -127 l77 -120
94 255 c172 463 162 442 193 434 14 -4 27 -8 29 -9z m5775 -57 c5 -9 7 -28 3
-42 -9 -38 -52 -38 -67 -1 -17 48 38 85 64 43z m154 13 c15 -10 19 -32 9 -60
-6 -18 -14 -22 -34 -20 -22 2 -28 9 -30 33 -5 38 27 65 55 47z m178 -19 c9
-25 -23 -65 -48 -61 -28 4 -37 56 -12 74 20 15 52 7 60 -13z m155 -17 c0 -48
-55 -62 -71 -18 -12 32 23 67 51 52 11 -6 20 -21 20 -34z m141 34 c25 -14 24
-52 -1 -75 -19 -17 -21 -17 -40 0 -24 22 -25 42 -3 67 19 21 19 21 44 8z
m-6113 -92 c7 -7 12 -21 12 -33 0 -12 -5 -26 -12 -33 -7 -7 -21 -12 -33 -12
-12 0 -26 5 -33 12 -7 7 -12 21 -12 33 0 12 5 26 12 33 7 7 21 12 33 12 12 0
26 -5 33 -12z m5480 -150 c7 -7 12 -21 12 -33 0 -43 -50 -62 -70 -26 -14 27
-13 37 6 55 19 19 36 20 52 4z m172 -9 c9 -16 8 -26 -5 -45 -24 -38 -65 -25
-65 21 0 44 50 62 70 24z m155 -18 c0 -41 -25 -62 -49 -42 -33 27 -12 85 29
79 16 -2 20 -11 20 -37z m155 24 c15 -18 6 -61 -15 -69 -28 -10 -45 5 -45 39
0 43 35 60 60 30z m158 3 c7 -7 12 -21 12 -33 0 -46 -53 -62 -71 -21 -21 45
26 87 59 54z m-3675 -73 c55 -9 132 -59 173 -113 100 -131 79 -312 -48 -427
-64 -58 -129 -79 -222 -73 -253 16 -376 312 -213 511 56 69 178 122 252 111
11 -1 37 -6 58 -9z m-2518 -36 c12 -18 -4 -57 -25 -64 -26 -8 -57 2 -64 22
-21 53 59 91 89 42z m805 -48 c0 -4 -13 -20 -30 -36 -26 -25 -30 -26 -30 -9 0
45 11 61 36 56 13 -2 24 -7 24 -11z m-412 -7 c12 -8 22 -22 22 -31 0 -21 -29
-53 -48 -53 -22 0 -52 30 -52 51 0 16 34 49 50 49 3 0 16 -7 28 -16z m735
-133 c4 -5 -27 -53 -70 -107 -44 -54 -88 -113 -100 -129 l-21 -31 44 -69 c25
-39 48 -82 51 -97 l6 -28 123 0 c74 0 124 4 124 10 0 5 29 47 64 93 l63 83
-19 27 -20 27 37 44 c42 51 23 52 182 -14 54 -23 102 -45 106 -50 9 -8 -77
-114 -252 -310 -62 -69 -192 -217 -289 -330 -97 -112 -215 -247 -262 -300
-122 -136 -435 -490 -650 -735 -356 -405 -678 -772 -845 -960 -93 -104 -224
-254 -293 -332 l-125 -143 -48 41 c-27 23 -52 45 -55 50 -5 9 91 133 321 409
66 80 151 182 188 226 l67 82 -98 65 c-53 35 -108 70 -122 77 l-25 13 23 -25
c27 -30 27 -36 1 -65 l-22 -22 -29 24 c-16 14 -36 25 -44 25 -22 0 -16 -27 11
-48 30 -24 32 -43 6 -66 -19 -17 -21 -17 -57 8 -34 23 -39 24 -48 9 -9 -16 2
-29 44 -53 13 -7 13 -12 0 -35 -16 -30 -38 -43 -49 -28 -8 12 -53 43 -63 43
-18 0 -6 -33 17 -52 30 -23 31 -38 6 -69 l-18 -23 -32 27 c-35 29 -46 33 -56
17 -3 -6 8 -23 26 -39 31 -29 32 -30 15 -55 -9 -14 -18 -26 -21 -26 -2 0 -21
11 -41 25 -20 14 -40 22 -45 19 -16 -10 -9 -32 16 -48 30 -20 32 -39 5 -66
l-20 -20 -28 25 c-29 27 -47 31 -58 13 -4 -6 4 -19 19 -30 33 -24 34 -44 6
-75 l-22 -22 -29 24 c-33 28 -43 30 -54 13 -4 -6 6 -23 26 -41 l33 -29 -26
-26 -26 -25 -60 52 c-34 29 -61 58 -61 64 0 15 81 122 441 577 247 313 369
469 509 655 212 280 294 387 400 520 53 66 125 158 160 205 35 47 163 213 284
368 122 156 280 359 351 452 72 92 154 197 183 233 l52 65 93 -40 c50 -22 96
-43 100 -47z m4437 19 c0 -19 -7 -33 -19 -40 -25 -13 -27 -13 -45 6 -21 21
-20 40 4 64 28 28 60 11 60 -30z m328 11 c5 -31 -16 -53 -47 -49 -20 2 -27 9
-29 29 -6 55 68 74 76 20z m-170 12 c19 -36 -16 -80 -49 -62 -19 9 -27 58 -12
72 13 14 52 7 61 -10z m480 -14 c3 -30 -28 -62 -51 -53 -20 7 -30 38 -22 65 5
16 14 19 38 17 26 -2 33 -8 35 -29z m-2443 -61 c22 -26 26 -39 21 -67 -6 -40
-45 -81 -77 -81 -34 0 -76 28 -86 57 -33 96 79 167 142 91z m-263 -48 c-4 -61
-1 -78 23 -125 42 -86 108 -125 212 -125 90 0 164 45 205 124 17 32 21 57 20
119 0 42 2 77 7 77 21 0 211 -177 211 -196 0 -24 -173 -165 -249 -202 -74 -37
-77 -37 -195 -37 -113 0 -125 2 -186 30 -64 30 -136 82 -225 164 l-46 42 43
49 c42 48 162 150 176 150 4 0 6 -32 4 -70z m2058 -88 c43 -34 -4 -97 -48 -66
-26 18 -28 41 -5 66 20 22 25 22 53 0z m472 1 c22 -20 23 -41 1 -65 -21 -24
-29 -23 -49 7 -15 23 -15 27 0 50 19 30 24 30 48 8z m159 7 c10 -6 19 -20 19
-32 0 -21 -26 -58 -41 -58 -14 0 -39 31 -39 50 0 17 24 50 36 50 3 0 14 -5 25
-10z m-303 -17 c18 -35 -16 -80 -48 -63 -24 13 -32 38 -20 61 13 24 56 25 68
2z m-5490 -115 c7 -7 12 -21 12 -33 0 -45 -60 -63 -80 -24 -23 41 35 90 68 57z
m2430 -1588 l0 -1464 -23 -61 c-12 -33 -59 -143 -103 -245 -44 -102 -104 -243
-132 -315 -29 -71 -55 -133 -59 -137 -3 -4 -8 180 -9 408 l-4 414 60 0 60 0 4
50 3 50 -62 0 -63 0 0 40 0 39 58 3 57 3 3 48 3 47 -60 0 -61 0 0 94 c0 105 1
106 81 106 36 0 37 1 41 45 l3 44 -60 3 -60 3 -3 193 -2 192 60 0 60 0 0 50 0
50 -60 0 c-60 0 -60 0 -60 29 0 33 14 41 75 41 43 0 43 0 47 41 2 22 2 42 -1
45 -2 2 -31 4 -63 4 l-58 0 0 105 0 105 60 0 60 0 0 50 0 50 -60 0 c-57 0 -60
1 -60 25 0 29 30 45 86 45 34 0 34 0 34 45 l0 45 -60 0 -60 0 0 100 0 100 60
0 60 0 0 50 0 50 -60 0 -60 0 0 90 0 90 40 1 c22 1 45 3 50 4 6 1 15 3 20 4 6
0 10 21 10 46 l0 44 -57 3 -58 3 0 90 0 90 58 3 57 3 0 44 0 45 -60 0 c-59 0
-60 0 -60 29 0 32 17 41 83 41 l37 0 0 46 0 46 -57 -4 -58 -3 0 29 c0 27 5 31
55 46 30 9 69 24 86 33 49 25 138 102 154 132 l15 28 7 -54 c3 -30 6 -713 6
-1519z m-989 1508 c17 -47 -7 -76 -54 -64 -31 8 -33 34 -5 64 26 28 48 28 59
0z m317 -29 c62 -56 134 -93 202 -104 40 -6 42 -8 42 -41 l0 -34 -60 0 -60 0
0 -45 0 -45 60 0 60 0 0 -95 0 -95 -60 0 -60 0 0 -50 0 -50 60 0 60 0 0 -171
0 -172 -60 6 -60 5 0 -49 0 -49 60 0 60 0 0 -35 0 -34 -57 -3 -58 -3 0 -44 0
-44 57 -1 56 -1 4 -75 c6 -119 6 -120 -64 -120 l-59 0 3 -47 c3 -52 -2 -49 86
-52 38 -1 38 -1 34 -37 l-4 -36 -57 4 -56 3 0 -45 0 -45 60 -5 60 -5 3 -65 c2
-35 1 -79 -3 -97 -6 -33 -6 -33 -65 -33 l-60 0 0 -50 0 -50 60 0 60 0 0 -200
0 -200 -60 0 -60 0 0 -45 0 -45 38 0 c68 0 82 -8 82 -48 l0 -35 -60 6 -60 5 0
-49 0 -49 59 0 58 0 7 -64 c3 -36 4 -83 0 -105 l-7 -41 -58 0 -59 0 0 -50 0
-50 60 0 60 0 0 -404 c0 -222 3 -411 6 -420 3 -9 2 -16 -2 -16 -9 0 -198 456
-279 670 l-40 107 1 1474 c2 1587 2 1519 9 1519 3 0 30 -23 61 -51z m-2154 -6
c24 -21 23 -45 -2 -68 -30 -27 -70 -7 -70 34 0 45 39 64 72 34z m5558 3 c16
-20 9 -56 -12 -70 -14 -8 -22 -6 -40 11 -19 19 -20 26 -10 48 13 28 43 33 62
11z m160 0 c28 -34 -11 -94 -44 -67 -19 16 -21 67 -3 74 22 9 34 7 47 -7z
m168 2 c18 -18 15 -43 -9 -64 -24 -22 -52 -10 -57 25 -6 41 38 67 66 39z m310
0 c17 -17 15 -42 -7 -62 -23 -21 -49 -12 -57 20 -11 42 34 72 64 42z m-4374
-194 c22 -22 20 -50 -6 -68 -19 -13 -25 -14 -43 -2 -27 18 -31 43 -9 67 21 23
37 24 58 3z m3730 -30 c9 -8 16 -24 16 -34 0 -18 -24 -50 -37 -50 -13 0 -43
34 -43 48 0 16 28 52 41 52 4 0 15 -7 23 -16z m166 -5 c23 -42 -13 -95 -46
-68 -17 14 -18 61 -2 77 18 18 36 15 48 -9z m154 5 c36 -35 -2 -105 -40 -73
-17 14 -19 60 -2 77 16 16 23 15 42 -4z m158 -1 c22 -20 23 -41 1 -65 -21 -24
-29 -23 -49 7 -15 23 -15 27 0 50 19 30 24 30 48 8z m160 0 c10 -9 18 -24 18
-34 0 -22 -37 -50 -56 -42 -24 9 -28 52 -9 73 22 24 24 24 47 3z m-6110 -40
c10 -9 18 -24 18 -34 0 -23 -42 -51 -64 -43 -25 10 -31 51 -11 74 22 24 33 25
57 3z m1790 -115 c82 -58 76 -198 -11 -243 -42 -21 -107 -19 -147 6 -35 21
-74 75 -74 103 0 14 -18 16 -145 16 -80 0 -145 3 -145 8 0 4 7 18 16 30 14 21
22 22 145 22 l130 0 34 35 c58 57 136 67 197 23z m3694 -74 c8 -33 -15 -59
-45 -49 -15 4 -21 15 -21 34 0 34 7 41 36 41 17 0 25 -7 30 -26z m159 -8 c0
-36 -26 -56 -49 -37 -16 14 -22 52 -9 65 4 4 19 6 33 4 20 -2 25 -8 25 -32z
m163 6 c7 -49 -52 -74 -64 -27 -10 39 2 57 33 53 20 -2 29 -9 31 -26z m150 11
c15 -29 -4 -62 -35 -63 -21 0 -35 37 -23 60 13 25 46 26 58 3z m162 2 c17 -21
-2 -65 -28 -65 -22 0 -42 19 -42 40 0 37 47 53 70 25z m-792 -19 c2 -10 -1
-23 -7 -29 -16 -16 -44 14 -35 37 8 22 38 17 42 -8z m-2293 -321 c115 -72 155
-127 155 -215 0 -83 -49 -148 -125 -169 -54 -15 -55 -15 -55 14 0 65 -53 125
-110 125 -19 0 -20 5 -20 187 l0 187 48 -46 c26 -25 74 -63 107 -83z m2450
105 c13 -41 -15 -77 -50 -64 -21 8 -30 51 -15 69 18 22 57 19 65 -5z m160 -19
c0 -41 -25 -62 -49 -42 -16 14 -22 62 -9 75 4 4 19 6 33 4 21 -3 25 -8 25 -37z
m160 0 c0 -41 -25 -62 -49 -42 -16 14 -22 62 -9 75 4 4 19 6 33 4 21 -3 25 -8
25 -37z m153 27 c17 -17 15 -42 -7 -62 -34 -31 -74 10 -51 54 12 22 40 26 58
8z m162 -3 c17 -21 4 -62 -22 -71 -36 -11 -64 46 -36 74 16 16 43 15 58 -3z
m-802 -27 c-5 -34 -38 -37 -38 -4 0 20 5 26 21 26 15 0 20 -5 17 -22z m-3584
-44 c22 -22 20 -50 -5 -68 -22 -15 -48 -11 -61 8 -32 46 27 99 66 60z m-2224
-28 c16 -20 9 -56 -12 -70 -40 -24 -80 44 -42 71 23 17 39 16 54 -1z m1823
-27 c14 -23 1 -66 -22 -72 -24 -6 -61 18 -61 39 0 9 5 24 11 35 12 24 57 23
72 -2z m4312 -157 c-9 -37 -19 -45 -44 -37 -27 8 -29 59 -4 74 29 16 56 -5 48
-37z m-327 9 c5 -31 -25 -56 -45 -40 -14 12 -18 51 -6 63 16 15 48 1 51 -23z
m163 12 c3 -49 -9 -68 -40 -58 -15 4 -21 15 -21 34 0 34 6 41 37 41 15 0 23
-6 24 -17z m319 -18 c0 -41 -23 -56 -47 -32 -24 24 -9 67 22 67 22 0 25 -4 25
-35z m325 14 c10 -31 -27 -68 -49 -49 -16 13 -22 51 -9 63 15 15 52 6 58 -14z
m-169 -14 c8 -20 -13 -45 -32 -38 -17 6 -19 39 -1 46 21 9 27 7 33 -8z m-4902
-51 c30 -30 13 -74 -29 -74 -42 0 -59 44 -29 74 8 9 22 16 29 16 7 0 21 -7 29
-16z m5058 -61 c22 -19 23 -46 3 -63 -36 -30 -77 19 -49 59 18 25 22 26 46 4z
m-791 -10 c3 -43 -9 -62 -39 -63 -18 0 -32 41 -20 63 5 9 20 17 33 17 17 0 25
-6 26 -17z m162 -5 c13 -48 -40 -81 -63 -38 -15 28 4 60 34 60 16 0 26 -7 29
-22z m163 -3 c8 -31 -12 -57 -40 -53 -13 2 -22 12 -24 26 -5 36 5 52 32 52 19
0 27 -7 32 -25z m162 -3 c7 -49 -52 -74 -64 -27 -10 39 2 57 33 53 20 -2 29
-9 31 -26z m155 7 c8 -28 -1 -47 -24 -54 -28 -9 -39 2 -39 41 0 31 3 34 29 34
21 0 30 -6 34 -21z m-4450 -20 c19 -26 12 -54 -18 -67 -30 -14 -65 10 -65 43
0 43 58 60 83 24z m-775 -452 l2 -457 326 0 325 0 -32 58 c-18 31 -54 95 -81
142 -26 46 -47 89 -45 95 2 5 14 10 27 10 24 0 22 3 173 -252 l31 -53 202 0
c164 0 203 -3 207 -14 3 -8 0 -21 -6 -30 -11 -15 -35 -17 -190 -14 -98 2 -177
-1 -177 -6 0 -8 210 -399 326 -608 56 -99 65 -137 39 -158 -19 -15 -12 -23
-67 80 -24 47 -107 200 -183 340 -76 140 -150 276 -164 302 l-26 48 -342 0
-343 0 0 -363 0 -363 86 -43 c279 -137 662 -262 948 -307 l109 -18 29 -63 c16
-36 32 -78 35 -95 l6 -31 -81 7 c-509 42 -1183 308 -1672 659 -192 138 -481
391 -480 421 1 6 14 26 30 45 27 32 31 33 84 29 60 -5 52 0 213 -136 177 -151
387 -300 541 -385 44 -25 83 -42 86 -39 3 3 6 158 6 344 l0 338 -385 0 c-406
0 -414 1 -367 43 16 15 61 17 383 19 l364 3 5 440 c4 372 7 443 20 457 8 10
20 16 25 14 6 -2 11 -166 13 -459z m461 288 c51 -26 81 -71 81 -121 0 -51 -14
-84 -35 -84 -16 0 -18 5 -15 68 1 35 -4 47 -28 72 -61 61 -172 28 -172 -50 0
-27 -3 -31 -22 -28 -32 4 -37 58 -9 97 40 56 138 79 200 46z m3939 -57 c7 -7
12 -21 12 -33 0 -43 -50 -62 -70 -26 -14 27 -13 37 6 55 19 19 36 20 52 4z
m337 -4 c20 -20 16 -53 -7 -68 -40 -24 -80 44 -42 71 23 17 29 16 49 -3z m173
-37 c-3 -28 -7 -32 -33 -32 -26 0 -30 4 -33 30 -5 37 21 59 50 44 14 -8 18
-19 16 -42z m162 3 c0 -34 -26 -53 -53 -39 -22 13 -22 65 0 78 27 14 53 -5 53
-39z m156 13 c5 -18 1 -31 -15 -46 l-22 -22 -20 24 c-24 29 -24 36 1 61 24 24
48 17 56 -17z m152 25 c27 -27 7 -78 -30 -78 -29 0 -42 37 -23 66 17 26 35 30
53 12z m-4968 -63 c10 -12 10 -21 2 -40 -15 -32 -50 -33 -61 -2 -17 45 29 78
59 42z m-134 -90 c29 -44 -9 -84 -46 -50 -23 20 -26 45 -8 63 19 19 36 14 54
-13z m198 9 c15 -40 6 -53 -60 -84 -78 -38 -84 -63 -17 -68 34 -3 47 2 76 27
38 34 64 39 74 15 8 -22 -40 -69 -86 -83 -82 -24 -151 -3 -170 51 -13 35 9 63
64 81 22 8 45 22 50 33 20 37 26 44 45 44 10 0 21 -7 24 -16z m3751 -54 c35
-38 -17 -94 -53 -58 -24 24 -8 78 23 78 7 0 20 -9 30 -20z m169 1 c31 -34 -12
-96 -47 -68 -23 19 -27 43 -11 66 19 26 36 27 58 2z m170 0 c21 -23 18 -49 -6
-65 -22 -13 -51 2 -56 28 -4 17 23 56 38 56 4 0 15 -9 24 -19z m167 9 c25 -14
24 -52 -1 -75 -19 -17 -21 -17 -40 0 -25 22 -26 61 -2 74 21 13 20 13 43 1z
m160 0 c27 -15 26 -66 -2 -80 -28 -16 -49 4 -49 45 0 28 7 39 28 44 2 1 12 -4
23 -9z m169 -8 c18 -14 20 -22 11 -43 -5 -15 -16 -29 -25 -32 -34 -13 -62 53
-34 81 16 16 22 15 48 -6z m151 8 c25 -14 24 -52 -2 -76 -21 -19 -21 -18 -40
5 -23 28 -24 45 -3 65 18 19 20 19 45 6z m160 0 c25 -14 24 -52 -2 -76 -21
-19 -21 -18 -40 5 -23 28 -24 45 -3 65 18 19 20 19 45 6z m-7411 -185 c20 -25
8 -50 -25 -50 -21 0 -31 5 -33 18 -4 21 14 47 33 47 7 0 18 -7 25 -15z m1870
-54 c12 -24 4 -48 -22 -62 -24 -13 -48 4 -48 35 0 44 50 63 70 27z m4394 3
c19 -18 20 -28 6 -55 -12 -21 -40 -25 -58 -7 -18 18 -15 55 6 67 23 14 28 14
46 -5z m171 -4 c35 -38 -17 -94 -53 -58 -24 24 -8 78 23 78 7 0 20 -9 30 -20z
m170 0 c35 -38 -17 -94 -53 -58 -24 24 -8 78 23 78 7 0 20 -9 30 -20z m174 -4
c10 -18 10 -29 2 -45 -21 -37 -71 -20 -71 24 0 46 48 61 69 21z m159 12 c16
-16 15 -53 -3 -68 -36 -30 -77 19 -49 59 17 24 34 27 52 9z m160 0 c26 -26 7
-78 -29 -78 -28 0 -40 55 -17 78 7 7 17 12 23 12 6 0 16 -5 23 -12z m166 -20
c17 -49 -40 -82 -64 -37 -9 16 -8 26 5 45 20 31 47 28 59 -8z m150 16 c20 -19
20 -48 1 -64 -35 -29 -77 11 -57 54 13 30 33 33 56 10z m-1414 -19 c14 -17 5
-51 -15 -59 -35 -13 -63 21 -45 55 13 23 43 25 60 4z m-16 -234 c24 -26 6 -71
-28 -71 -36 0 -52 34 -31 66 19 29 36 30 59 5z m451 -1 c17 -18 17 -21 1 -45
-17 -26 -24 -29 -50 -19 -19 7 -21 55 -4 72 17 17 32 15 53 -8z m170 0 c16
-18 17 -23 5 -45 -14 -27 -39 -32 -58 -13 -24 24 -8 78 23 78 7 0 20 -9 30
-20z m176 -1 c16 -31 -4 -71 -33 -67 -31 5 -44 31 -30 62 14 32 47 34 63 5z
m157 9 c7 -7 12 -21 12 -33 0 -47 -54 -62 -70 -19 -18 47 25 85 58 52z m168
-13 c12 -18 11 -24 -2 -43 -8 -12 -23 -22 -33 -22 -30 0 -43 54 -19 78 17 17
38 11 54 -13z m152 13 c28 -28 3 -84 -34 -76 -28 5 -40 33 -26 62 12 28 40 34
60 14z m160 0 c28 -28 3 -84 -34 -76 -28 5 -40 33 -26 62 12 28 40 34 60 14z
m-344 -238 c96 -24 185 -71 250 -131 l51 -47 -50 -44 c-125 -112 -126 -112
-143 -100 -126 87 -230 110 -350 78 -108 -29 -193 -101 -240 -205 -21 -47 -25
-71 -26 -151 -1 -84 3 -102 28 -157 35 -76 104 -144 184 -181 48 -22 70 -26
142 -26 100 1 174 25 237 79 23 19 44 35 48 35 11 0 175 -133 175 -142 0 -20
-130 -131 -191 -163 -183 -96 -435 -83 -608 31 -260 172 -353 514 -218 799
127 265 420 400 711 325z m-1086 -66 c4 -36 -18 -59 -47 -49 -47 15 -32 89 17
83 22 -2 28 -9 30 -34z m160 24 c18 -18 14 -56 -7 -68 -29 -15 -40 -12 -52 14
-21 45 26 87 59 54z m-340 -210 c24 -24 8 -78 -24 -78 -17 0 -44 28 -44 45 0
17 27 45 44 45 6 0 17 -5 24 -12z m170 0 c7 -7 12 -21 12 -33 0 -45 -54 -62
-69 -22 -17 47 25 87 57 55z m172 -3 c7 -8 10 -25 6 -39 -12 -48 -76 -41 -76
8 0 42 45 62 70 31z m-4975 -225 c0 -22 -5 -26 -43 -31 -71 -9 -71 -11 -72
-289 0 -135 -5 -262 -10 -282 -6 -20 -24 -48 -41 -62 -42 -35 -83 -34 -120 4
-26 25 -30 36 -27 72 2 36 7 44 26 46 20 3 22 -1 22 -37 0 -48 27 -70 65 -53
32 15 35 43 34 318 -1 254 2 275 47 315 26 23 44 28 84 26 30 -2 35 -5 35 -27z
m-1443 -7 c16 -14 18 -34 18 -178 0 -112 -4 -165 -12 -173 -19 -19 -66 -15
-78 7 -5 11 -10 86 -10 172 0 128 3 155 17 171 20 22 41 23 65 1z m5666 -125
c28 -28 0 -81 -38 -71 -25 7 -37 48 -20 68 15 18 42 19 58 3z m180 -25 c4 -42
-29 -64 -59 -37 -35 32 -16 77 31 72 20 -2 26 -9 28 -35z m228 29 c19 -13 23
-39 8 -61 -20 -28 -40 -27 -59 3 -27 41 12 85 51 58z m254 -51 c0 -23 -19 -31
-75 -31 -45 0 -61 11 -51 35 4 11 22 15 66 15 52 0 60 -2 60 -19z m-4775 -106
c0 -23 -5 -30 -19 -30 -24 0 -41 27 -33 49 4 11 15 16 29 14 18 -2 23 -9 23
-33z m462 -70 c12 -8 27 -31 33 -50 15 -47 -11 -104 -79 -170 -28 -27 -51 -53
-51 -57 0 -4 32 -8 70 -8 68 0 70 -1 70 -25 0 -25 0 -25 -95 -25 -81 0 -96 3
-104 18 -15 29 19 91 83 148 48 45 56 57 56 88 0 63 -72 74 -88 12 -6 -24 -14
-31 -33 -31 -38 0 -39 47 0 85 24 24 38 30 73 30 24 0 53 -7 65 -15z m3251 -7
c17 -17 15 -42 -7 -62 -23 -21 -49 -12 -57 20 -11 42 34 72 64 42z m238 -3 c4
-8 3 -27 0 -41 -5 -20 -12 -25 -34 -22 -28 3 -40 32 -28 64 7 19 55 18 62 -1z
m172 -13 c4 -30 -14 -52 -44 -52 -26 0 -39 28 -29 61 10 30 69 23 73 -9z m170
11 c15 -28 -3 -63 -32 -63 -32 0 -51 32 -36 60 13 25 56 26 68 3z m242 -3 c12
-22 0 -55 -22 -63 -17 -6 -44 9 -52 28 -17 45 52 77 74 35z m336 -7 c5 -20 2
-31 -15 -45 -30 -24 -61 -9 -61 31 0 35 6 41 41 41 23 0 30 -6 35 -27z m-5358
-70 c4 -30 -31 -49 -52 -27 -12 12 -13 20 -5 35 14 27 53 22 57 -8z m3870
-145 c17 -17 15 -38 -5 -60 -21 -24 -29 -23 -48 6 -29 43 18 89 53 54z m168
-13 c8 -31 -12 -57 -40 -53 -13 2 -22 12 -24 26 -5 36 5 52 32 52 19 0 27 -7
32 -25z m162 13 c18 -18 15 -42 -7 -62 -27 -24 -61 -6 -61 33 0 15 3 31 7 34
11 11 48 8 61 -5z m240 -19 c2 -15 -4 -34 -13 -43 -23 -23 -55 -4 -55 33 0 35
8 43 40 39 19 -2 26 -10 28 -29z m168 6 c12 -48 -44 -77 -66 -35 -15 28 4 60
35 60 18 0 26 -7 31 -25z m172 -10 c4 -35 -21 -59 -48 -45 -43 23 -29 84 18
78 22 -2 28 -9 30 -33z m238 20 c9 -23 -4 -62 -22 -69 -20 -8 -54 20 -54 44 0
36 64 57 76 25z m172 -20 c3 -19 -2 -33 -14 -42 -25 -18 -54 1 -54 36 0 35 8
43 40 39 19 -2 26 -9 28 -33z m160 23 c18 -18 14 -45 -9 -62 -27 -18 -47 -11
-55 20 -11 42 34 72 64 42z m-1638 -17 c7 -15 5 -25 -10 -43 l-20 -23 -20 23
c-23 28 -12 62 20 62 11 0 24 -9 30 -19z m-3266 -17 c20 -19 20 -28 1 -44 -30
-25 -70 15 -45 45 16 19 25 19 44 -1z m3084 -12 c4 -26 -22 -40 -43 -22 -11 9
-12 17 -4 32 13 25 43 19 47 -10z m-4596 -39 c16 -14 18 -33 18 -140 l0 -123
1774 0 1775 0 15 -22 c21 -29 20 -51 -2 -71 -17 -16 -156 -17 -1838 -15
l-1819 3 -3 174 c-2 151 0 176 14 192 21 23 42 24 66 2z m7948 -153 c17 -17
20 -33 20 -108 0 -55 -4 -92 -12 -100 -17 -17 -3639 -17 -3656 0 -17 17 -15
58 5 80 15 17 84 18 1783 18 l1767 0 5 50 c8 78 45 103 88 60z m-4035 -502
c18 -8 32 -8 49 0 19 9 24 20 30 71 4 34 11 61 17 61 20 0 65 -29 96 -62 71
-74 79 -186 20 -275 -98 -146 -316 -128 -388 32 -49 107 2 249 105 296 l41 18
3 -65 c3 -58 6 -66 27 -76z"/>
<path d="M3180 7659 c-306 -255 -585 -552 -769 -816 l-22 -33 500 0 501 0 0
394 0 394 -62 66 -63 67 -85 -72z"/>
<path d="M3450 7175 l0 -365 51 0 c40 0 60 6 97 32 95 64 295 235 290 248 -2
5 -101 108 -220 229 l-218 222 0 -366z"/>
<path d="M3885 6999 c-22 -22 -79 -73 -127 -111 -49 -39 -88 -72 -88 -74 0 -2
114 -4 253 -4 l252 0 -117 115 c-64 63 -120 115 -125 115 -5 0 -27 -18 -48
-41z"/>
<path d="M4351 6821 c-24 -23 -31 -37 -31 -68 1 -56 47 -103 103 -103 38 0 97
57 97 95 0 90 -104 137 -169 76z m103 -22 c31 -25 34 -61 6 -89 -39 -39 -100
-14 -100 41 0 25 38 69 60 69 4 0 19 -9 34 -21z"/>
<path d="M5975 8010 c-23 -25 -13 -64 21 -87 55 -35 116 27 80 82 -21 32 -74
34 -101 5z"/>
<path d="M6546 7138 c-24 -34 -19 -56 24 -105 45 -52 60 -94 60 -175 0 -48 3
-59 21 -68 28 -16 66 -5 81 23 15 29 15 132 -2 182 -26 80 -105 165 -154 165
-8 0 -22 -10 -30 -22z"/>
<path d="M6943 6774 c-15 -24 -15 -29 -2 -53 12 -22 24 -27 71 -32 34 -4 81
-19 117 -38 85 -44 130 -41 190 13 35 32 44 64 26 92 -19 30 -57 31 -95 4
l-29 -21 -67 31 c-52 23 -81 30 -130 30 -57 0 -65 -3 -81 -26z"/>
<path d="M7644 5341 c-26 -11 -69 -68 -88 -117 -14 -35 -48 -189 -138 -624
-25 -122 -28 -151 -18 -182 22 -77 80 -99 129 -50 24 24 32 53 80 292 29 146
70 348 92 449 41 184 41 184 21 210 -21 28 -45 35 -78 22z"/>
<path d="M5055 5420 c-46 -10 -75 -32 -96 -72 -38 -73 -12 -153 61 -191 85
-44 200 27 200 123 0 89 -81 158 -165 140z"/>
<path d="M3117 4496 c-71 -26 -107 -80 -107 -161 0 -110 94 -184 199 -155 139
37 174 218 58 297 -42 29 -103 37 -150 19z"/>
<path d="M4374 4550 c-51 -20 -71 -102 -36 -148 49 -63 163 -36 178 43 14 77
-66 136 -142 105z m81 -45 c14 -13 25 -29 25 -35 0 -23 -22 -51 -47 -61 -63
-24 -101 58 -47 100 34 27 40 26 69 -4z"/>
</g>
</svg>
