<?xml version="1.0" standalone="no"?>
<!DOCTYPE svg PUBLIC "-//W3C//DTD SVG 20010904//EN"
 "http://www.w3.org/TR/2001/REC-SVG-20010904/DTD/svg10.dtd">
<svg version="1.0" xmlns="http://www.w3.org/2000/svg"
 width="128.000000pt" height="128.000000pt" viewBox="0 0 128.000000 128.000000"
 preserveAspectRatio="xMidYMid meet">

<g transform="translate(0.000000,128.000000) scale(0.100000,-0.100000)"
fill="#000000" stroke="none">
<path d="M0 640 l0 -640 640 0 640 0 0 640 0 640 -640 0 -640 0 0 -640z m627
329 c-1 -237 -2 -251 -20 -261 -19 -10 -19 -6 -14 188 4 166 20 324 32 324 2
0 3 -113 2 -251z m48 145 c17 -110 21 -414 6 -414 -6 0 -13 6 -18 13 -8 12
-15 512 -7 504 2 -2 11 -48 19 -103z m-315 66 l-245 -5 -5 -140 -6 -140 -2
148 -2 147 253 -2 252 -2 -245 -6z m820 -525 l0 -535 -252 2 -253 3 248 2 247
3 -2 523 -3 522 -245 5 -245 6 253 2 252 2 0 -535z m-807 488 l-222 -3 -4
-128 -3 -127 -2 133 -2 132 228 -2 227 -3 -222 -2z m765 -460 l-3 -468 -2 462
-3 463 -223 3 -222 2 228 3 227 2 -2 -467z m-828 368 c0 -61 -15 -91 -46 -91
-18 0 -18 14 1 30 10 8 15 31 15 66 0 41 4 54 15 54 12 0 15 -13 15 -59z m128
13 c-3 -27 -4 -26 -9 8 -3 22 -1 34 4 29 5 -5 7 -21 5 -37z m42 31 c0 -8 -2
-15 -4 -15 -2 0 -6 7 -10 15 -3 8 -1 15 4 15 6 0 10 -7 10 -15z m521 -11 l26
-25 21 25 c36 47 52 35 52 -39 0 -51 -3 -65 -15 -65 -11 0 -15 11 -15 37 l0
37 -22 -22 -22 -22 -23 22 -23 21 0 -36 c0 -26 -4 -37 -15 -37 -12 0 -15 14
-15 65 0 73 9 80 51 39z m-421 -14 c0 -5 -17 -17 -37 -25 -21 -9 -58 -28 -82
-42 l-43 -25 38 -39 c43 -44 49 -42 95 31 16 25 29 41 29 37 0 -5 -16 -33 -36
-63 -30 -44 -34 -57 -24 -69 7 -8 21 -15 31 -15 11 0 19 -7 19 -15 0 -17 -16
-20 -25 -5 -3 6 -21 10 -38 11 -30 1 -30 1 -7 8 15 4 20 10 13 14 -13 8 -43
-1 -43 -14 0 -5 -7 -9 -15 -9 -9 0 -16 -10 -16 -27 l-2 -28 -4 28 c-4 26 -6
27 -68 27 -35 0 -67 -4 -70 -10 -3 -5 -10 -10 -16 -10 -52 0 103 160 206 213
73 38 95 44 95 27z m174 -32 c-2 -21 7 -23 23 -7 16 16 60 3 68 -20 3 -10 15
-21 25 -24 25 -7 27 -55 3 -64 -9 -4 -19 -1 -21 5 -5 17 -33 44 -39 38 -3 -3
2 -12 11 -21 9 -9 16 -21 16 -26 0 -15 46 -10 60 6 10 12 16 13 27 4 8 -7 11
-19 8 -27 -3 -8 3 -20 12 -28 17 -12 17 -15 3 -41 -13 -23 -23 -28 -55 -28
-33 -1 -46 6 -77 37 -33 34 -78 51 -78 30 0 -5 10 -8 23 -8 15 1 23 -5 25 -21
2 -14 11 -23 25 -25 14 -2 23 -11 25 -26 3 -19 6 -21 18 -11 7 6 25 9 38 5 16
-4 32 1 50 15 23 18 27 18 32 5 11 -28 -5 -68 -24 -62 -14 5 -17 -1 -18 -28 0
-30 2 -33 18 -23 29 19 41 -2 29 -54 -6 -24 -11 -60 -11 -80 0 -21 -8 -47 -19
-60 -17 -21 -22 -22 -40 -11 -20 12 -21 10 -21 -52 0 -54 -4 -69 -25 -95 -27
-32 -141 -94 -156 -85 -13 8 -11 54 3 54 9 0 9 3 0 12 -8 8 -9 15 -1 25 9 9 8
13 0 13 -7 0 -9 5 -6 10 3 6 22 10 41 10 44 0 36 15 -13 25 -21 4 -32 10 -25
12 10 4 10 8 1 19 -9 11 -6 16 14 23 33 13 41 38 21 68 -9 14 -13 34 -10 46 3
12 -1 25 -11 32 -9 7 -13 17 -9 23 5 9 18 5 45 -10 42 -24 34 -25 116 19 21
12 25 18 15 21 -8 3 -27 13 -42 23 -34 25 -59 24 -93 -3 -18 -14 -26 -17 -23
-7 9 26 69 53 122 53 l50 0 -34 14 c-25 10 -55 12 -103 8 l-68 -6 3 32 c4 38
34 51 55 22 7 -10 16 -15 19 -11 13 12 -18 37 -46 37 l-28 0 0 75 c0 41 3 75
8 75 15 0 32 -40 27 -61 -6 -24 2 -24 18 -2 10 14 10 20 -1 31 -8 7 -14 22
-14 32 0 11 -7 17 -17 16 -14 -1 -19 8 -21 37 -3 37 -2 38 25 35 19 -2 28 -8
27 -20z m-514 -38 c0 -23 -5 -30 -19 -30 -23 0 -40 22 -23 28 7 2 12 10 12 18
0 8 7 14 15 14 10 0 15 -10 15 -30z m-118 -124 c31 -14 58 -32 62 -42 10 -25
2 -27 -19 -4 -10 11 -23 20 -29 20 -15 0 -94 49 -80 50 6 0 36 -11 66 -24z
m230 -746 c132 0 243 -2 246 -5 3 -3 -108 -5 -246 -5 l-252 0 2 368 3 367 2
-362 3 -363 242 0z m73 626 c130 -52 161 -68 163 -85 2 -12 -1 -21 -6 -21 -14
0 -312 128 -340 146 -25 16 -20 38 6 30 10 -3 89 -35 177 -70z m-278 -298 c-1
-68 -3 -15 -3 117 0 132 2 187 3 123 2 -64 2 -172 0 -240z m87 265 c-8 -25
-14 -70 -14 -100 l0 -53 38 -2 37 -1 -37 -4 -37 -4 15 -50 c17 -58 8 -87 -12
-39 -34 80 -35 231 -3 292 18 34 27 9 13 -39z m346 22 l0 -35 -37 15 c-50 21
-51 23 -12 39 47 21 49 20 49 -19z m-290 -42 c-11 -17 -11 -17 -6 0 3 10 6 24
7 30 0 9 2 9 5 0 3 -7 0 -20 -6 -30z m383 -25 c8 -12 7 -21 -2 -32 -19 -23
-58 -20 -66 4 -14 43 44 67 68 28z m-400 -1 c4 3 7 1 7 -5 0 -8 23 -13 63 -14
l62 -2 -62 -3 c-35 -2 -63 -6 -63 -9 0 -3 9 -23 21 -45 11 -23 19 -43 16 -45
-2 -2 -14 19 -27 46 -13 28 -27 50 -31 50 -3 0 -9 9 -12 21 -4 15 -2 18 7 10
7 -6 16 -8 19 -4z m197 -5 c0 -4 -5 -13 -11 -19 -6 -6 -8 -16 -5 -22 12 -18
46 -12 54 9 5 14 11 17 22 10 12 -8 12 -11 -1 -27 -87 -101 -312 -354 -319
-358 -21 -13 -9 16 21 49 47 54 25 66 -27 15 -80 -79 -46 -20 98 166 125 162
168 207 168 177z m349 -24 c12 14 22 18 26 12 11 -17 -15 -40 -45 -40 -30 0
-56 23 -45 40 4 6 14 2 26 -12 l19 -23 19 23z m-9 18 c0 -3 -4 -8 -10 -11 -5
-3 -10 -1 -10 4 0 6 5 11 10 11 6 0 10 -2 10 -4z m-138 -447 l-19 -44 1 218
c1 181 4 219 16 227 13 8 15 -15 18 -174 2 -161 0 -188 -16 -227z m-46 176 c1
-219 1 -220 -17 -180 -15 33 -18 70 -18 223 -1 169 0 183 16 180 16 -3 18 -23
19 -223z m-56 170 c0 -17 -4 -18 -40 -8 l-25 7 25 7 c38 11 40 10 40 -6z m170
-67 c0 -10 -4 -18 -8 -18 -14 0 -32 23 -32 42 0 16 3 16 20 6 11 -7 20 -21 20
-30z m-244 -247 c30 -12 61 -21 69 -21 8 0 15 -5 15 -11 0 -16 -66 -4 -126 21
-53 23 -144 87 -144 101 0 15 22 10 44 -10 12 -10 34 -27 50 -37 l28 -18 -2
50 c-2 27 -1 74 1 104 2 34 4 14 6 -52 l4 -107 55 -20z m-2 181 c3 -5 -1 -9
-9 -9 -8 0 -12 4 -9 9 3 4 7 8 9 8 2 0 6 -4 9 -8z m63 -114 c12 -27 20 -48 18
-48 -4 0 -75 129 -75 138 0 12 35 -43 57 -90z m524 21 c27 -14 13 -32 -18 -24
-29 7 -63 -18 -63 -46 0 -27 39 -50 63 -38 13 8 22 8 30 0 17 -17 -8 -35 -49
-35 -69 0 -99 80 -49 129 26 27 54 31 86 14z m-934 -86 c-3 -10 -5 -4 -5 12 0
17 2 24 5 18 2 -7 2 -21 0 -30z m224 -83 c139 0 219 -4 219 -10 0 -6 -82 -10
-225 -10 l-225 0 1 28 c1 16 3 20 6 10 4 -16 23 -18 224 -18z m769 -5 c0 -13
-32 -15 -225 -15 -140 0 -225 4 -225 10 0 6 86 11 223 13 122 1 223 3 225 5 1
1 2 -5 2 -13z m-473 -52 c2 -5 -3 -16 -12 -23 -13 -11 -19 -11 -32 2 -8 9 -13
20 -10 25 8 13 50 9 54 -4z"/>
<path d="M381 944 c-17 -14 -40 -39 -52 -55 l-20 -29 60 0 61 0 0 49 c0 28 -4
52 -9 55 -5 4 -23 -6 -40 -20z"/>
<path d="M440 902 c0 -46 5 -49 35 -27 19 15 19 16 -8 42 l-27 28 0 -43z"/>
<path d="M824 887 c3 -10 6 -24 6 -30 0 -8 4 -7 12 1 9 10 8 16 -6 30 -18 16
-19 16 -12 -1z"/>
<path d="M874 849 c-3 -5 -1 -9 5 -9 5 0 16 -3 25 -6 9 -3 16 -2 16 4 0 13
-38 23 -46 11z"/>
<path d="M941 626 c-13 -53 -14 -76 -3 -76 5 0 14 23 20 51 14 61 15 69 3 69
-5 0 -14 -20 -20 -44z"/>
<path d="M625 669 c-10 -15 1 -23 20 -15 9 3 13 10 10 16 -8 13 -22 13 -30 -1z"/>
<path d="M387 564 c-14 -15 -6 -34 14 -34 14 0 19 5 17 17 -3 18 -20 27 -31
17z"/>
</g>
</svg>
